<svg xmlns="http://www.w3.org/2000/svg" xmlns:xlink="http://www.w3.org/1999/xlink" width="358.91" height="14.414" viewBox="0 0 358.91 14.414"><defs><style>.a,.c,.d,.e,.g,.h,.i,.j,.k,.l,.m,.n{fill:none;}.b{clip-path:url(#a);}.c{stroke:#101820;}.d{stroke:#8d2165;}.e{stroke:#005c88;}.f{fill:#103b81;stroke:#c1d82f;}.g{stroke:#919394;}.h{stroke:#54bceb;}.i{stroke:#ef4135;}.j{stroke:#f89728;}.k{stroke:#47bca0;}.l{stroke:#f6b2cf;}.m{stroke:#fdd500;}.n{stroke:#d1e9d9;}</style><clipPath id="a"><rect class="a" width="358.91" height="14.414"/></clipPath></defs><g class="b"><g transform="translate(-256.045 -1205.293)"><line class="c" x1="5" y2="11" transform="translate(256.5 1205.5)"/><line class="d" x1="5" y2="11" transform="translate(261.5 1205.5)"/><line class="e" x1="5" y2="11" transform="translate(266.5 1205.5)"/><path class="f" d="M5,0,0,11" transform="translate(271.5 1205.5)"/><line class="g" x1="5" y2="11" transform="translate(276.5 1205.5)"/><line class="h" x1="5" y2="11" transform="translate(281.5 1205.5)"/><line class="i" x1="5" y2="11" transform="translate(286.5 1205.5)"/><line class="j" x1="5" y2="11" transform="translate(291.5 1205.5)"/><line class="k" x1="5" y2="11" transform="translate(296.5 1205.5)"/><line class="l" x1="5" y2="11" transform="translate(301.5 1205.5)"/><line class="m" x1="5" y2="11" transform="translate(306.5 1205.5)"/><line class="n" x1="5" y2="11" transform="translate(311.5 1205.5)"/></g><g transform="translate(-196.045 -1205.293)"><line class="c" x1="5" y2="11" transform="translate(256.5 1205.5)"/><line class="d" x1="5" y2="11" transform="translate(261.5 1205.5)"/><line class="e" x1="5" y2="11" transform="translate(266.5 1205.5)"/><path class="f" d="M5,0,0,11" transform="translate(271.5 1205.5)"/><line class="g" x1="5" y2="11" transform="translate(276.5 1205.5)"/><line class="h" x1="5" y2="11" transform="translate(281.5 1205.5)"/><line class="i" x1="5" y2="11" transform="translate(286.5 1205.5)"/><line class="j" x1="5" y2="11" transform="translate(291.5 1205.5)"/><line class="k" x1="5" y2="11" transform="translate(296.5 1205.5)"/><line class="l" x1="5" y2="11" transform="translate(301.5 1205.5)"/><line class="m" x1="5" y2="11" transform="translate(306.5 1205.5)"/><line class="n" x1="5" y2="11" transform="translate(311.5 1205.5)"/></g><g transform="translate(-136.045 -1205.293)"><line class="c" x1="5" y2="11" transform="translate(256.5 1205.5)"/><line class="d" x1="5" y2="11" transform="translate(261.5 1205.5)"/><line class="e" x1="5" y2="11" transform="translate(266.5 1205.5)"/><path class="f" d="M5,0,0,11" transform="translate(271.5 1205.5)"/><line class="g" x1="5" y2="11" transform="translate(276.5 1205.5)"/><line class="h" x1="5" y2="11" transform="translate(281.5 1205.5)"/><line class="i" x1="5" y2="11" transform="translate(286.5 1205.5)"/><line class="j" x1="5" y2="11" transform="translate(291.5 1205.5)"/><line class="k" x1="5" y2="11" transform="translate(296.5 1205.5)"/><line class="l" x1="5" y2="11" transform="translate(301.5 1205.5)"/><line class="m" x1="5" y2="11" transform="translate(306.5 1205.5)"/><line class="n" x1="5" y2="11" transform="translate(311.5 1205.5)"/></g><g transform="translate(-76.045 -1205.293)"><line class="c" x1="5" y2="11" transform="translate(256.5 1205.5)"/><line class="d" x1="5" y2="11" transform="translate(261.5 1205.5)"/><line class="e" x1="5" y2="11" transform="translate(266.5 1205.5)"/><path class="f" d="M5,0,0,11" transform="translate(271.5 1205.5)"/><line class="g" x1="5" y2="11" transform="translate(276.5 1205.5)"/><line class="h" x1="5" y2="11" transform="translate(281.5 1205.5)"/><line class="i" x1="5" y2="11" transform="translate(286.5 1205.5)"/><line class="j" x1="5" y2="11" transform="translate(291.5 1205.5)"/><line class="k" x1="5" y2="11" transform="translate(296.5 1205.5)"/><line class="l" x1="5" y2="11" transform="translate(301.5 1205.5)"/><line class="m" x1="5" y2="11" transform="translate(306.5 1205.5)"/><line class="n" x1="5" y2="11" transform="translate(311.5 1205.5)"/></g><g transform="translate(-16.045 -1205.293)"><line class="c" x1="5" y2="11" transform="translate(256.5 1205.5)"/><line class="d" x1="5" y2="11" transform="translate(261.5 1205.5)"/><line class="e" x1="5" y2="11" transform="translate(266.5 1205.5)"/><path class="f" d="M5,0,0,11" transform="translate(271.5 1205.5)"/><line class="g" x1="5" y2="11" transform="translate(276.5 1205.5)"/><line class="h" x1="5" y2="11" transform="translate(281.5 1205.5)"/><line class="i" x1="5" y2="11" transform="translate(286.5 1205.5)"/><line class="j" x1="5" y2="11" transform="translate(291.5 1205.5)"/><line class="k" x1="5" y2="11" transform="translate(296.5 1205.5)"/><line class="l" x1="5" y2="11" transform="translate(301.5 1205.5)"/><line class="m" x1="5" y2="11" transform="translate(306.5 1205.5)"/><line class="n" x1="5" y2="11" transform="translate(311.5 1205.5)"/></g><g transform="translate(43.955 -1205.293)"><line class="c" x1="5" y2="11" transform="translate(256.5 1205.5)"/><line class="d" x1="5" y2="11" transform="translate(261.5 1205.5)"/><line class="e" x1="5" y2="11" transform="translate(266.5 1205.5)"/><path class="f" d="M5,0,0,11" transform="translate(271.5 1205.5)"/><line class="g" x1="5" y2="11" transform="translate(276.5 1205.5)"/><line class="h" x1="5" y2="11" transform="translate(281.5 1205.5)"/><line class="i" x1="5" y2="11" transform="translate(286.5 1205.5)"/><line class="j" x1="5" y2="11" transform="translate(291.5 1205.5)"/><line class="k" x1="5" y2="11" transform="translate(296.5 1205.5)"/><line class="l" x1="5" y2="11" transform="translate(301.5 1205.5)"/><line class="m" x1="5" y2="11" transform="translate(306.5 1205.5)"/><line class="n" x1="5" y2="11" transform="translate(311.5 1205.5)"/></g></g></svg>